<svg width="346pt" height="21pt" viewBox="0 0 346 21" xmlns="http://www.w3.org/2000/svg"><g id="fontsvg1701032971347" stroke-linecap="round" fill-rule="evenodd" fill="#000000"><path d="M 0.425 1.187 L 2.124 0.132 A 15.436 15.436 0 0 0 3.313 0.377 Q 3.927 0.48 4.614 0.552 A 25.123 25.123 0 0 0 4.658 0.557 L 6.987 0.762 Q 7.822 1.304 8.467 2.256 L 9.111 6.899 L 9.741 9.229 L 9.946 11.982 A 10.12 10.12 0 0 1 9.655 14.034 A 11.65 11.65 0 0 1 9.521 14.531 A 1.377 1.377 0 0 0 10.109 15.131 A 1.712 1.712 0 0 0 10.166 15.161 L 10.811 14.326 L 11.016 13.477 L 10.591 13.271 L 10.811 12.832 L 11.221 10.928 L 11.016 9.653 L 11.44 8.818 L 11.865 6.27 A 8.117 8.117 0 0 1 12.084 4.825 A 9.731 9.731 0 0 1 12.275 4.146 L 12.7 1.831 A 5.337 5.337 0 0 1 14.551 0.784 A 6.099 6.099 0 0 1 14.619 0.762 L 17.373 0.557 L 19.907 0.967 Q 20.361 2.095 20.537 3.311 L 20.537 9.023 L 20.332 10.928 L 20.537 11.572 L 20.537 13.477 L 20.757 13.901 L 20.537 14.106 L 20.757 16.23 L 20.537 18.984 A 13.28 13.28 0 0 1 19.651 19.519 A 17.893 17.893 0 0 1 18.633 20.039 A 8.306 8.306 0 0 1 17.065 19.82 A 10.072 10.072 0 0 1 16.318 19.614 A 4.584 4.584 0 0 1 15.302 18.054 A 5.315 5.315 0 0 1 15.249 17.915 L 16.084 5.42 A 5.318 5.318 0 0 0 15.499 6.448 A 6.672 6.672 0 0 0 15.249 7.119 L 14.194 14.106 A 11.337 11.337 0 0 1 13.781 15.276 A 14.599 14.599 0 0 1 13.345 16.23 L 13.564 18.135 L 13.345 18.779 A 11.194 11.194 0 0 1 12.561 19.303 Q 12.15 19.555 11.676 19.803 A 18.05 18.05 0 0 1 11.646 19.819 L 11.016 19.819 L 11.016 20.039 L 9.111 19.819 A 8.171 8.171 0 0 1 8.169 18.96 A 10.078 10.078 0 0 1 7.632 18.34 L 7.412 15.586 L 6.357 10.928 A 7.526 7.526 0 0 1 5.97 9.236 A 8.624 8.624 0 0 1 5.933 8.818 L 5.508 6.27 L 5.508 5.215 L 4.878 6.27 L 5.303 8.599 L 5.083 10.518 L 5.303 11.147 L 5.083 13.901 L 6.138 18.135 A 5.138 5.138 0 0 1 5.306 19.097 A 6.555 6.555 0 0 1 4.658 19.614 L 2.754 19.819 L 2.124 19.614 A 4.979 4.979 0 0 1 1.041 19.132 A 6.749 6.749 0 0 1 0.205 18.545 L 0.205 15.586 L 0.63 13.052 L 0 10.723 L 0.63 8.599 L 0 6.27 L 0.205 3.516 L 0 2.886 L 0.425 1.187 Z M 91.479 1.187 L 93.179 0.132 A 15.436 15.436 0 0 0 94.368 0.377 Q 94.982 0.48 95.669 0.552 A 25.123 25.123 0 0 0 95.713 0.557 L 98.042 0.762 Q 98.877 1.304 99.521 2.256 L 100.166 6.899 L 100.796 9.229 L 101.001 11.982 A 10.12 10.12 0 0 1 100.71 14.034 A 11.65 11.65 0 0 1 100.576 14.531 A 1.377 1.377 0 0 0 101.163 15.131 A 1.712 1.712 0 0 0 101.221 15.161 L 101.865 14.326 L 102.07 13.477 L 101.646 13.271 L 101.865 12.832 L 102.275 10.928 L 102.07 9.653 L 102.495 8.818 L 102.92 6.27 A 8.117 8.117 0 0 1 103.139 4.825 A 9.731 9.731 0 0 1 103.33 4.146 L 103.755 1.831 A 5.337 5.337 0 0 1 105.605 0.784 A 6.099 6.099 0 0 1 105.674 0.762 L 108.428 0.557 L 110.962 0.967 Q 111.416 2.095 111.592 3.311 L 111.592 9.023 L 111.387 10.928 L 111.592 11.572 L 111.592 13.477 L 111.812 13.901 L 111.592 14.106 L 111.812 16.23 L 111.592 18.984 A 13.28 13.28 0 0 1 110.706 19.519 A 17.893 17.893 0 0 1 109.688 20.039 A 8.306 8.306 0 0 1 108.12 19.82 A 10.072 10.072 0 0 1 107.373 19.614 A 4.584 4.584 0 0 1 106.357 18.054 A 5.315 5.315 0 0 1 106.304 17.915 L 107.139 5.42 A 5.318 5.318 0 0 0 106.553 6.448 A 6.672 6.672 0 0 0 106.304 7.119 L 105.249 14.106 A 11.337 11.337 0 0 1 104.836 15.276 A 14.599 14.599 0 0 1 104.399 16.23 L 104.619 18.135 L 104.399 18.779 A 11.194 11.194 0 0 1 103.616 19.303 Q 103.204 19.555 102.731 19.803 A 18.05 18.05 0 0 1 102.7 19.819 L 102.07 19.819 L 102.07 20.039 L 100.166 19.819 A 8.171 8.171 0 0 1 99.224 18.96 A 10.078 10.078 0 0 1 98.687 18.34 L 98.467 15.586 L 97.412 10.928 A 7.526 7.526 0 0 1 97.025 9.236 A 8.624 8.624 0 0 1 96.987 8.818 L 96.563 6.27 L 96.563 5.215 L 95.933 6.27 L 96.357 8.599 L 96.138 10.518 L 96.357 11.147 L 96.138 13.901 L 97.192 18.135 A 5.138 5.138 0 0 1 96.36 19.097 A 6.555 6.555 0 0 1 95.713 19.614 L 93.809 19.819 L 93.179 19.614 A 4.979 4.979 0 0 1 92.096 19.132 A 6.749 6.749 0 0 1 91.26 18.545 L 91.26 15.586 L 91.685 13.052 L 91.055 10.723 L 91.685 8.599 L 91.055 6.27 L 91.26 3.516 L 91.055 2.886 L 91.479 1.187 Z M 217.207 0.088 L 221.265 0.513 L 225.952 8.833 L 226.802 11.191 L 226.802 9.902 L 226.157 3.076 L 226.377 2.432 A 2.53 2.53 0 0 1 226.552 1.547 Q 226.959 0.56 228.296 0.308 L 230.64 0.088 L 231.489 0.513 A 10.744 10.744 0 0 1 231.989 2.556 A 14.294 14.294 0 0 1 232.134 4.351 L 231.929 6.694 L 232.134 7.339 L 232.134 7.764 L 232.354 7.764 L 232.134 7.983 L 231.709 10.972 L 231.709 11.616 L 231.929 11.616 L 231.709 12.261 L 232.134 13.74 L 231.929 14.385 L 232.134 18.428 L 231.709 19.072 L 228.501 20.142 A 7.379 7.379 0 0 1 226.011 19.009 A 8.806 8.806 0 0 1 225.527 18.647 A 14.549 14.549 0 0 1 224.691 16.792 A 18.291 18.291 0 0 1 224.253 15.454 Q 223.374 14.341 222.539 12.891 L 221.045 9.902 L 221.895 6.914 L 222.114 5.64 L 220.825 5.64 L 221.689 6.284 L 220.62 9.038 L 220.195 9.683 L 220.825 12.466 L 221.265 18.867 L 220.195 19.702 L 216.577 20.142 A 4.814 4.814 0 0 1 215.573 18.461 A 6.521 6.521 0 0 1 215.288 17.358 L 215.508 15.015 L 215.288 13.535 L 215.508 11.616 L 215.068 7.764 L 215.288 6.489 L 215.508 5.845 A 22.4 22.4 0 0 0 215.312 4.288 Q 215.143 3.226 214.863 2.007 Q 215.654 0.718 217.207 0.088 Z M 137.402 0.938 L 140.537 0.103 L 144.097 0.747 Q 145.178 1.482 146.359 2.587 A 26.037 26.037 0 0 1 146.396 2.622 A 12.076 12.076 0 0 1 147.864 3.832 A 14.945 14.945 0 0 1 148.711 4.717 A 3.982 3.982 0 0 1 147.499 6.455 A 5.157 5.157 0 0 1 147.026 6.812 L 144.521 7.427 L 143.892 7.017 A 16.352 16.352 0 0 0 142.311 6.029 A 19.733 19.733 0 0 0 141.387 5.552 A 12.691 12.691 0 0 0 138.99 6.054 A 15.034 15.034 0 0 0 138.032 6.387 Q 137.3 7.617 136.772 9.111 L 137.183 12.466 A 18.682 18.682 0 0 0 138.043 13.586 A 24.856 24.856 0 0 0 139.072 14.751 L 141.387 14.971 L 142.222 14.561 A 5.359 5.359 0 0 0 143.342 13.12 A 6.212 6.212 0 0 0 143.467 12.876 A 13.339 13.339 0 0 1 142.454 13.012 Q 141.761 13.079 140.962 13.096 L 140.537 12.466 L 139.922 9.741 L 140.112 9.111 L 141.167 8.071 L 146.206 8.481 L 146.821 8.276 A 2.585 2.585 0 0 1 147.615 8.434 Q 148.428 8.749 148.638 9.672 A 3.199 3.199 0 0 1 148.711 10.356 L 148.711 17.695 A 2.273 2.273 0 0 1 148.468 18.545 Q 148.024 19.377 146.821 19.57 A 2.814 2.814 0 0 1 144.649 18.543 A 4.237 4.237 0 0 1 144.316 18.105 L 142.002 19.79 L 139.072 19.995 L 135.308 18.955 A 20.007 20.007 0 0 0 133.319 17.29 A 22.311 22.311 0 0 0 133.008 17.065 L 131.323 14.561 L 131.118 11.821 L 131.323 11.206 L 131.323 7.852 L 131.118 7.222 L 132.378 4.292 L 134.473 2.402 Q 135.586 1.304 137.402 0.938 Z M 183.472 0.938 L 186.606 0.103 L 190.166 0.747 Q 191.247 1.482 192.428 2.587 A 26.037 26.037 0 0 1 192.466 2.622 A 12.076 12.076 0 0 1 193.933 3.832 A 14.945 14.945 0 0 1 194.78 4.717 A 3.982 3.982 0 0 1 193.568 6.455 A 5.157 5.157 0 0 1 193.096 6.812 L 190.591 7.427 L 189.961 7.017 A 16.352 16.352 0 0 0 188.38 6.029 A 19.733 19.733 0 0 0 187.456 5.552 A 12.691 12.691 0 0 0 185.06 6.054 A 15.034 15.034 0 0 0 184.102 6.387 Q 183.369 7.617 182.842 9.111 L 183.252 12.466 A 18.682 18.682 0 0 0 184.113 13.586 A 24.856 24.856 0 0 0 185.142 14.751 L 187.456 14.971 L 188.291 14.561 A 5.359 5.359 0 0 0 189.411 13.12 A 6.212 6.212 0 0 0 189.536 12.876 A 13.339 13.339 0 0 1 188.523 13.012 Q 187.831 13.079 187.031 13.096 L 186.606 12.466 L 185.991 9.741 L 186.182 9.111 L 187.236 8.071 L 192.275 8.481 L 192.891 8.276 A 2.585 2.585 0 0 1 193.684 8.434 Q 194.497 8.749 194.707 9.672 A 3.199 3.199 0 0 1 194.78 10.356 L 194.78 17.695 A 2.273 2.273 0 0 1 194.537 18.545 Q 194.093 19.377 192.891 19.57 A 2.814 2.814 0 0 1 190.718 18.543 A 4.237 4.237 0 0 1 190.386 18.105 L 188.071 19.79 L 185.142 19.995 L 181.377 18.955 A 20.007 20.007 0 0 0 179.389 17.29 A 22.311 22.311 0 0 0 179.077 17.065 L 177.393 14.561 L 177.188 11.821 L 177.393 11.206 L 177.393 7.852 L 177.188 7.222 L 178.447 4.292 L 180.542 2.402 Q 181.655 1.304 183.472 0.938 Z M 153.472 0.103 L 156.87 0.513 L 160.063 0.308 L 162.832 0.513 L 163.477 0.308 A 5.31 5.31 0 0 1 165.739 1.325 A 6.184 6.184 0 0 1 165.806 1.377 L 166.025 3.721 L 165.806 4.351 L 165.176 5.42 L 163.682 5.625 L 163.257 5.42 L 156.87 5.2 L 157.515 7.339 L 163.901 6.899 L 164.531 7.134 L 165.601 7.969 L 165.381 9.683 A 9.46 9.46 0 0 1 164.724 11.294 A 11.348 11.348 0 0 1 164.312 12.026 L 161.133 12.231 L 158.145 11.382 A 4.023 4.023 0 0 0 157.139 13.512 A 5.148 5.148 0 0 0 157.09 13.931 A 7.895 7.895 0 0 0 159.639 14.575 L 165.601 14.15 L 166.245 14.575 L 166.655 16.919 A 7.496 7.496 0 0 1 166.239 18.67 A 9.485 9.485 0 0 1 165.806 19.673 L 163.477 19.893 L 162.832 19.673 L 159.639 19.263 Q 158.218 19.644 156.65 19.673 L 153.677 20.112 A 5.82 5.82 0 0 1 151.992 18.916 A 7.113 7.113 0 0 1 151.538 18.413 L 151.333 16.069 L 151.538 15.425 L 151.758 13.726 L 151.538 13.301 L 151.538 12.026 L 151.758 8.408 L 151.538 5.42 L 151.758 1.802 A 5.811 5.811 0 0 1 152.603 0.81 A 7.834 7.834 0 0 1 153.472 0.103 Z M 199.541 0.103 L 202.939 0.513 L 206.133 0.308 L 208.901 0.513 L 209.546 0.308 A 5.31 5.31 0 0 1 211.808 1.325 A 6.184 6.184 0 0 1 211.875 1.377 L 212.095 3.721 L 211.875 4.351 L 211.245 5.42 L 209.751 5.625 L 209.326 5.42 L 202.939 5.2 L 203.584 7.339 L 209.971 6.899 L 210.601 7.134 L 211.67 7.969 L 211.45 9.683 A 9.46 9.46 0 0 1 210.794 11.294 A 11.348 11.348 0 0 1 210.381 12.026 L 207.202 12.231 L 204.214 11.382 A 4.023 4.023 0 0 0 203.208 13.512 A 5.148 5.148 0 0 0 203.159 13.931 A 7.895 7.895 0 0 0 205.708 14.575 L 211.67 14.15 L 212.314 14.575 L 212.725 16.919 A 7.496 7.496 0 0 1 212.308 18.67 A 9.485 9.485 0 0 1 211.875 19.673 L 209.546 19.893 L 208.901 19.673 L 205.708 19.263 Q 204.287 19.644 202.72 19.673 L 199.746 20.112 A 5.82 5.82 0 0 1 198.061 18.916 A 7.113 7.113 0 0 1 197.607 18.413 L 197.402 16.069 L 197.607 15.425 L 197.827 13.726 L 197.607 13.301 L 197.607 12.026 L 197.827 8.408 L 197.607 5.42 L 197.827 1.802 A 5.811 5.811 0 0 1 198.672 0.81 A 7.834 7.834 0 0 1 199.541 0.103 Z M 236.836 0.103 L 240.234 0.513 L 243.428 0.308 L 246.196 0.513 L 246.841 0.308 A 5.31 5.31 0 0 1 249.103 1.325 A 6.184 6.184 0 0 1 249.17 1.377 L 249.39 3.721 L 249.17 4.351 L 248.54 5.42 L 247.046 5.625 L 246.621 5.42 L 240.234 5.2 L 240.879 7.339 L 247.266 6.899 L 247.896 7.134 L 248.965 7.969 L 248.745 9.683 A 9.46 9.46 0 0 1 248.089 11.294 A 11.348 11.348 0 0 1 247.676 12.026 L 244.497 12.231 L 241.509 11.382 A 4.023 4.023 0 0 0 240.503 13.512 A 5.148 5.148 0 0 0 240.454 13.931 A 7.895 7.895 0 0 0 243.003 14.575 L 248.965 14.15 L 249.609 14.575 L 250.02 16.919 A 7.496 7.496 0 0 1 249.603 18.67 A 9.485 9.485 0 0 1 249.17 19.673 L 246.841 19.893 L 246.196 19.673 L 243.003 19.263 Q 241.582 19.644 240.015 19.673 L 237.041 20.112 A 5.82 5.82 0 0 1 235.356 18.916 A 7.113 7.113 0 0 1 234.902 18.413 L 234.697 16.069 L 234.902 15.425 L 235.122 13.726 L 234.902 13.301 L 234.902 12.026 L 235.122 8.408 L 234.902 5.42 L 235.122 1.802 A 5.811 5.811 0 0 1 235.967 0.81 A 7.834 7.834 0 0 1 236.836 0.103 Z M 252.583 0.483 L 253.242 0.044 L 256.274 0.264 L 257.783 0.044 L 258.208 0.264 L 258.867 0.483 L 261.021 0.264 L 261.68 0.483 L 264.492 0.264 L 266.88 1.348 L 268.594 2.637 A 17.539 17.539 0 0 1 269.044 3.757 A 22.847 22.847 0 0 1 269.458 5.01 L 269.692 7.178 L 268.594 10.21 A 11.409 11.409 0 0 1 267.697 10.873 A 15.33 15.33 0 0 1 266.646 11.514 L 266.221 12.158 L 268.389 15.19 L 269.458 17.344 A 5.865 5.865 0 0 1 269.686 18.028 Q 269.783 18.385 269.853 18.794 A 10.55 10.55 0 0 1 269.897 19.072 L 269.253 19.497 L 266.646 19.717 Q 265.386 19.658 264.067 19.292 L 262.544 17.344 L 261.46 15.396 Q 261.182 14.268 260.596 13.022 L 259.307 12.803 L 258.867 13.022 A 0.433 0.433 0 0 0 258.713 13.103 Q 258.599 13.192 258.489 13.368 A 1.941 1.941 0 0 0 258.442 13.447 L 258.647 16.04 L 258.442 16.699 L 258.867 18.428 A 6.091 6.091 0 0 1 257.94 19.362 A 7.96 7.96 0 0 1 257.139 19.937 L 254.546 20.156 A 8.711 8.711 0 0 1 253.305 19.299 A 10.817 10.817 0 0 1 252.583 18.647 L 252.817 16.699 L 252.583 16.04 L 252.378 13.887 L 252.583 13.242 L 252.817 10.635 L 252.817 7.397 L 252.583 6.753 L 252.817 4.805 L 252.583 2.856 L 253.022 2.212 L 252.583 0.483 Z M 328.008 0.483 L 328.667 0.044 L 331.699 0.264 L 333.208 0.044 L 333.633 0.264 L 334.292 0.483 L 336.445 0.264 L 337.104 0.483 L 339.917 0.264 L 342.305 1.348 L 344.019 2.637 A 17.539 17.539 0 0 1 344.469 3.757 A 22.847 22.847 0 0 1 344.883 5.01 L 345.117 7.178 L 344.019 10.21 A 11.409 11.409 0 0 1 343.121 10.873 A 15.33 15.33 0 0 1 342.07 11.514 L 341.646 12.158 L 343.813 15.19 L 344.883 17.344 A 5.865 5.865 0 0 1 345.111 18.028 Q 345.208 18.385 345.278 18.794 A 10.55 10.55 0 0 1 345.322 19.072 L 344.678 19.497 L 342.07 19.717 Q 340.811 19.658 339.492 19.292 L 337.969 17.344 L 336.885 15.396 Q 336.606 14.268 336.021 13.022 L 334.731 12.803 L 334.292 13.022 A 0.433 0.433 0 0 0 334.138 13.103 Q 334.024 13.192 333.914 13.368 A 1.941 1.941 0 0 0 333.867 13.447 L 334.072 16.04 L 333.867 16.699 L 334.292 18.428 A 6.091 6.091 0 0 1 333.365 19.362 A 7.96 7.96 0 0 1 332.563 19.937 L 329.971 20.156 A 8.711 8.711 0 0 1 328.73 19.299 A 10.817 10.817 0 0 1 328.008 18.647 L 328.242 16.699 L 328.008 16.04 L 327.803 13.887 L 328.008 13.242 L 328.242 10.635 L 328.242 7.397 L 328.008 6.753 L 328.242 4.805 L 328.008 2.856 L 328.447 2.212 L 328.008 0.483 Z M 22.017 0.205 L 24.595 0.63 L 26.323 0.41 L 26.968 0.63 L 28.462 2.139 L 29.531 3.838 L 30.396 5.991 Q 31.04 5.918 31.465 5.347 A 4.879 4.879 0 0 1 32.141 4.12 A 6.021 6.021 0 0 1 32.549 3.633 A 6.268 6.268 0 0 1 33.361 1.757 A 7.047 7.047 0 0 1 33.398 1.699 L 35.332 0.63 L 38.335 0.63 L 40.063 1.904 Q 39.683 2.827 38.979 3.633 L 34.263 10.283 A 3.103 3.103 0 0 0 33.658 11.685 A 3.854 3.854 0 0 0 33.618 11.997 L 33.398 13.931 L 33.618 14.575 L 33.618 17.373 Q 33.589 18.354 33.193 19.307 Q 32.095 19.761 30.82 19.937 L 29.106 20.156 L 28.462 19.717 A 4.913 4.913 0 0 1 27.844 18.149 A 5.607 5.607 0 0 1 27.817 18.018 L 27.612 12.437 L 27.817 11.147 L 27.393 10.283 L 25.884 8.774 L 21.167 2.139 Q 21.445 1.128 22.017 0.205 Z M 295.02 0.557 L 295.884 0.337 L 297.393 0.762 L 298.037 0.557 L 302.813 0.337 L 303.457 0.557 L 304.116 1.86 L 304.321 2.725 L 303.882 5.098 L 302.813 5.537 L 299.136 4.878 L 299.341 8.13 L 299.136 8.774 L 299.341 13.535 L 299.136 15.923 L 299.341 16.787 L 299.341 18.296 A 5.477 5.477 0 0 1 296.785 20.237 A 7.131 7.131 0 0 1 296.089 20.464 Q 294.653 20.215 293.276 19.6 L 293.057 18.735 L 293.276 18.296 L 293.496 14.619 L 293.276 11.587 L 293.716 10.942 L 293.496 10.298 L 293.057 8.35 L 293.921 6.182 A 0.66 0.66 0 0 0 293.77 5.929 Q 293.651 5.808 293.464 5.765 A 0.967 0.967 0 0 0 293.276 5.742 L 290.244 6.401 Q 288.94 5.024 288.735 2.93 Q 289.263 1.157 291.108 0.117 Q 292.556 0.394 294.404 0.52 A 40.518 40.518 0 0 0 295.02 0.557 Z M 52.603 0.703 L 54.492 0.073 A 11.328 11.328 0 0 1 57.012 0.498 L 58.696 1.538 Q 59.143 2.331 59.519 3.394 A 16.229 16.229 0 0 1 59.531 3.428 L 60.571 7.207 L 61.421 8.877 L 62.036 10.986 L 63.091 12.656 Q 63.252 13.696 63.735 14.751 L 64.556 16.655 L 64.98 18.12 L 64.629 18.853 L 62.959 19.893 L 61.069 19.893 L 61.069 20.098 L 60.439 19.893 A 3.614 3.614 0 0 1 59.474 19.324 A 4.696 4.696 0 0 1 58.975 18.853 A 7.17 7.17 0 0 1 58.583 17.551 A 5.934 5.934 0 0 1 58.477 16.655 L 58.052 16.436 L 57.231 16.846 L 56.807 16.655 L 54.067 16.655 A 2.759 2.759 0 0 0 52.69 17.762 A 3.496 3.496 0 0 0 52.603 17.9 L 51.548 19.585 L 49.453 20.215 L 47.153 19.79 A 5.942 5.942 0 0 1 46.443 19.069 A 7.94 7.94 0 0 1 45.894 18.325 L 47.563 14.561 L 47.783 12.246 L 48.838 10.342 L 50.728 4.263 L 51.548 2.593 A 7.953 7.953 0 0 1 52.439 0.931 A 8.998 8.998 0 0 1 52.603 0.703 Z M 118.623 0.703 L 120.513 0.073 A 11.328 11.328 0 0 1 123.032 0.498 L 124.717 1.538 Q 125.164 2.331 125.54 3.394 A 16.229 16.229 0 0 1 125.552 3.428 L 126.592 7.207 L 127.441 8.877 L 128.057 10.986 L 129.111 12.656 Q 129.272 13.696 129.756 14.751 L 130.576 16.655 L 131.001 18.12 L 130.649 18.853 L 128.979 19.893 L 127.09 19.893 L 127.09 20.098 L 126.46 19.893 A 3.614 3.614 0 0 1 125.495 19.324 A 4.696 4.696 0 0 1 124.995 18.853 A 7.17 7.17 0 0 1 124.604 17.551 A 5.934 5.934 0 0 1 124.497 16.655 L 124.072 16.436 L 123.252 16.846 L 122.827 16.655 L 120.088 16.655 A 2.759 2.759 0 0 0 118.71 17.762 A 3.496 3.496 0 0 0 118.623 17.9 L 117.568 19.585 L 115.474 20.215 L 113.174 19.79 A 5.942 5.942 0 0 1 112.463 19.069 A 7.94 7.94 0 0 1 111.914 18.325 L 113.584 14.561 L 113.804 12.246 L 114.858 10.342 L 116.748 4.263 L 117.568 2.593 A 7.953 7.953 0 0 1 118.459 0.931 A 8.998 8.998 0 0 1 118.623 0.703 Z M 276.548 0.703 L 278.438 0.073 A 11.328 11.328 0 0 1 280.957 0.498 L 282.642 1.538 Q 283.089 2.331 283.465 3.394 A 16.229 16.229 0 0 1 283.477 3.428 L 284.517 7.207 L 285.366 8.877 L 285.981 10.986 L 287.036 12.656 Q 287.197 13.696 287.681 14.751 L 288.501 16.655 L 288.926 18.12 L 288.574 18.853 L 286.904 19.893 L 285.015 19.893 L 285.015 20.098 L 284.385 19.893 A 3.614 3.614 0 0 1 283.419 19.324 A 4.696 4.696 0 0 1 282.92 18.853 A 7.17 7.17 0 0 1 282.529 17.551 A 5.934 5.934 0 0 1 282.422 16.655 L 281.997 16.436 L 281.177 16.846 L 280.752 16.655 L 278.013 16.655 A 2.759 2.759 0 0 0 276.635 17.762 A 3.496 3.496 0 0 0 276.548 17.9 L 275.493 19.585 L 273.398 20.215 L 271.099 19.79 A 5.942 5.942 0 0 1 270.388 19.069 A 7.94 7.94 0 0 1 269.839 18.325 L 271.509 14.561 L 271.729 12.246 L 272.783 10.342 L 274.673 4.263 L 275.493 2.593 A 7.953 7.953 0 0 1 276.384 0.931 A 8.998 8.998 0 0 1 276.548 0.703 Z M 310.093 2.109 L 313.154 0.278 L 316.421 0.278 L 317.842 0.688 Q 319.512 1.069 321.299 2.109 Q 322.632 3.032 323.745 4.761 L 324.976 8.232 A 10.131 10.131 0 0 0 324.581 10.277 A 11.277 11.277 0 0 0 324.565 10.459 L 324.771 11.279 A 18.457 18.457 0 0 1 324.095 14.317 A 21.507 21.507 0 0 1 323.745 15.352 L 321.299 18.003 A 19.889 19.889 0 0 1 320.305 18.659 Q 319.4 19.221 318.237 19.834 L 313.77 20.039 A 12.376 12.376 0 0 1 311.849 19.283 A 16.401 16.401 0 0 1 310.298 18.413 A 25.727 25.727 0 0 1 309.018 17.396 Q 308.352 16.834 307.646 16.172 L 306.431 12.305 L 306.636 8.423 Q 306.797 6.768 307.646 4.761 L 310.093 2.109 Z M 65.581 0.85 L 68.364 0 Q 69.785 0.41 71.147 1.069 L 71.367 4.292 L 70.928 6.226 L 71.367 7.075 L 70.928 12.861 L 71.367 14.15 L 71.147 15.659 L 71.147 16.084 L 71.367 16.084 L 71.147 16.304 L 71.572 18.662 L 71.147 19.307 A 4.929 4.929 0 0 1 69.358 20.037 A 6.48 6.48 0 0 1 68.364 20.156 A 8.298 8.298 0 0 1 66.293 19.466 A 9.952 9.952 0 0 1 65.581 19.087 L 65.347 17.153 L 65.581 15.659 L 65.142 15.015 A 4.475 4.475 0 0 0 65.501 13.899 A 5.59 5.59 0 0 0 65.581 13.286 L 65.786 10.283 L 65.581 7.5 L 65.786 6.87 L 65.347 1.494 L 65.581 0.85 Z M 82.676 0.85 L 85.459 0 Q 86.88 0.41 88.242 1.069 L 88.462 4.292 L 88.022 6.226 L 88.462 7.075 L 88.022 12.861 L 88.462 14.15 L 88.242 15.659 L 88.242 16.084 L 88.462 16.084 L 88.242 16.304 L 88.667 18.662 L 88.242 19.307 A 4.929 4.929 0 0 1 86.453 20.037 A 6.48 6.48 0 0 1 85.459 20.156 A 8.298 8.298 0 0 1 83.388 19.466 A 9.952 9.952 0 0 1 82.676 19.087 L 82.441 17.153 L 82.676 15.659 L 82.236 15.015 A 4.475 4.475 0 0 0 82.596 13.899 A 5.59 5.59 0 0 0 82.676 13.286 L 82.881 10.283 L 82.676 7.5 L 82.881 6.87 L 82.441 1.494 L 82.676 0.85 Z M 314.985 5.376 L 312.334 7.412 L 311.924 10.049 A 6.147 6.147 0 0 0 312.294 11.734 A 8.57 8.57 0 0 0 312.949 13.11 Q 314.18 14.268 316.011 14.546 A 5.132 5.132 0 0 0 318.131 13.097 A 6.361 6.361 0 0 0 318.457 12.7 Q 318.792 11.638 318.966 10.184 A 23.234 23.234 0 0 0 319.058 9.243 A 5.037 5.037 0 0 0 318.645 7.672 A 6.883 6.883 0 0 0 318.047 6.592 A 13.629 13.629 0 0 0 315.652 5.573 A 15.677 15.677 0 0 0 314.985 5.376 Z M 257.783 6.533 L 258.442 8.057 A 1.173 1.173 0 0 0 258.921 8.612 A 1.576 1.576 0 0 0 259.087 8.701 L 262.544 8.262 L 264.067 7.617 A 5.056 5.056 0 0 0 263.372 6.002 A 6.26 6.26 0 0 0 262.969 5.449 A 12.251 12.251 0 0 0 261.007 4.888 Q 260.049 4.694 258.961 4.608 A 20.848 20.848 0 0 0 258.647 4.585 A 11.703 11.703 0 0 1 258.115 5.884 A 14.054 14.054 0 0 1 257.783 6.533 Z M 333.208 6.533 L 333.867 8.057 A 1.173 1.173 0 0 0 334.346 8.612 A 1.576 1.576 0 0 0 334.512 8.701 L 337.969 8.262 L 339.492 7.617 A 5.056 5.056 0 0 0 338.797 6.002 A 6.26 6.26 0 0 0 338.394 5.449 A 12.251 12.251 0 0 0 336.431 4.888 Q 335.474 4.694 334.386 4.608 A 20.848 20.848 0 0 0 334.072 4.585 A 11.703 11.703 0 0 1 333.54 5.884 A 14.054 14.054 0 0 1 333.208 6.533 Z M 54.492 10.562 L 54.287 12.041 L 56.177 12.246 A 1.15 1.15 0 0 0 56.766 11.699 A 1.508 1.508 0 0 0 56.807 11.616 L 56.382 9.727 Q 55.928 8.525 55.122 7.207 A 11.105 11.105 0 0 1 54.915 8.927 A 14.949 14.949 0 0 1 54.492 10.562 Z M 120.513 10.562 L 120.308 12.041 L 122.197 12.246 A 1.15 1.15 0 0 0 122.787 11.699 A 1.508 1.508 0 0 0 122.827 11.616 L 122.402 9.727 Q 121.948 8.525 121.143 7.207 A 11.105 11.105 0 0 1 120.936 8.927 A 14.949 14.949 0 0 1 120.513 10.562 Z M 278.438 10.562 L 278.232 12.041 L 280.122 12.246 A 1.15 1.15 0 0 0 280.712 11.699 A 1.508 1.508 0 0 0 280.752 11.616 L 280.327 9.727 Q 279.873 8.525 279.067 7.207 A 11.105 11.105 0 0 1 278.86 8.927 A 14.949 14.949 0 0 1 278.437 10.562 Z M 145.562 12.466 L 144.727 14.751 L 145.986 14.751 L 145.562 13.286 L 146.396 12.876 A 1.316 1.316 0 0 0 146.048 12.63 Q 145.89 12.552 145.695 12.498 A 2.553 2.553 0 0 0 145.562 12.466 Z M 191.631 12.466 L 190.796 14.751 L 192.056 14.751 L 191.631 13.286 L 192.466 12.876 A 1.316 1.316 0 0 0 192.117 12.63 Q 191.959 12.552 191.764 12.498 A 2.553 2.553 0 0 0 191.631 12.466 Z M 322.515 11.074 L 321.709 11.074 L 320.698 11.895 A 5.141 5.141 0 0 0 321.017 12.689 Q 321.193 13.045 321.434 13.415 A 8.584 8.584 0 0 0 321.504 13.521 L 321.299 11.895 L 322.515 11.074 Z M 218.276 2.651 A 6.874 6.874 0 0 0 219.159 3.853 Q 219.69 4.438 220.4 4.995 A 2.705 2.705 0 0 0 219.825 3.631 Q 219.443 3.165 218.821 2.866 A 4.26 4.26 0 0 0 218.276 2.651 Z M 296.733 9.214 L 296.323 8.555 L 295.664 11.367 L 296.323 11.162 L 296.733 9.214 Z M 267.085 6.533 L 266.221 6.533 L 265.576 7.397 L 266.646 8.701 L 267.085 6.533 Z M 342.51 6.533 L 341.646 6.533 L 341.001 7.397 L 342.07 8.701 L 342.51 6.533 Z M 320.889 5.171 L 318.853 3.34 A 2.371 2.371 0 0 0 320.22 4.948 A 3.566 3.566 0 0 0 320.889 5.171 Z M 225.527 11.191 L 223.813 11.191 A 8.93 8.93 0 0 0 224.594 11.84 Q 225.019 12.156 225.519 12.461 A 13.424 13.424 0 0 0 225.527 12.466 L 225.732 11.616 L 225.527 11.191 Z M 2.754 9.023 L 2.549 8.818 L 2.754 9.873 L 2.549 10.518 L 3.179 9.873 L 3.604 8.818 L 2.754 9.023 Z M 93.809 9.023 L 93.604 8.818 L 93.809 9.873 L 93.604 10.518 L 94.233 9.873 L 94.658 8.818 L 93.809 9.023 Z M 57.847 13.916 L 59.106 16.025 A 5.081 5.081 0 0 0 57.958 14.034 A 5.961 5.961 0 0 0 57.847 13.916 Z M 123.867 13.916 L 125.127 16.025 A 5.081 5.081 0 0 0 123.979 14.034 A 5.961 5.961 0 0 0 123.867 13.916 Z M 281.792 13.916 L 283.052 16.025 A 5.081 5.081 0 0 0 281.903 14.034 A 5.961 5.961 0 0 0 281.792 13.916 Z M 316.201 17.593 L 316.201 18.208 L 316.831 18.003 L 317.637 17.593 A 1.374 1.374 0 0 0 317.087 16.631 A 1.793 1.793 0 0 0 317.021 16.582 A 2.923 2.923 0 0 0 316.45 17.189 A 3.728 3.728 0 0 0 316.201 17.593 Z M 134.048 10.356 L 133.843 12.041 L 134.473 12.466 A 9.364 9.364 0 0 0 134.348 11.601 Q 134.265 11.162 134.138 10.681 A 16.184 16.184 0 0 0 134.048 10.356 Z M 180.117 10.356 L 179.912 12.041 L 180.542 12.466 A 9.364 9.364 0 0 0 180.417 11.601 Q 180.334 11.162 180.207 10.681 A 16.184 16.184 0 0 0 180.117 10.356 Z M 257.563 10.869 L 256.494 10.21 A 1.784 1.784 0 0 0 255.839 11.464 A 2.283 2.283 0 0 0 255.835 11.514 A 10.553 10.553 0 0 1 256.641 11.177 Q 257.073 11.016 257.563 10.869 Z M 332.988 10.869 L 331.919 10.21 A 1.784 1.784 0 0 0 331.264 11.464 A 2.283 2.283 0 0 0 331.26 11.514 A 10.553 10.553 0 0 1 332.065 11.177 Q 332.498 11.016 332.988 10.869 Z M 51.138 8.467 A 3.205 3.205 0 0 0 52.221 9.608 A 4.301 4.301 0 0 0 52.822 9.932 A 4.842 4.842 0 0 0 51.609 8.758 A 5.906 5.906 0 0 0 51.138 8.467 Z M 117.158 8.467 A 3.205 3.205 0 0 0 118.242 9.608 A 4.301 4.301 0 0 0 118.843 9.932 A 4.842 4.842 0 0 0 117.629 8.758 A 5.906 5.906 0 0 0 117.158 8.467 Z M 275.083 8.467 A 3.205 3.205 0 0 0 276.166 9.608 A 4.301 4.301 0 0 0 276.768 9.932 A 4.842 4.842 0 0 0 275.554 8.758 A 5.906 5.906 0 0 0 275.083 8.467 Z M 53.862 5.112 L 53.438 6.782 L 54.287 6.782 Q 54.287 5.933 53.862 5.112 Z M 119.883 5.112 L 119.458 6.782 L 120.308 6.782 Q 120.308 5.933 119.883 5.112 Z M 277.808 5.112 L 277.383 6.782 L 278.232 6.782 Q 278.232 5.933 277.808 5.112 Z M 28.462 7.5 L 28.257 6.211 L 27.173 7.28 L 28.462 7.5 Z M 156.65 15.864 L 155.815 16.919 L 156.226 17.563 A 3.586 3.586 0 0 0 156.641 16.096 A 4.273 4.273 0 0 0 156.65 15.864 Z M 202.72 15.864 L 201.885 16.919 L 202.295 17.563 A 3.586 3.586 0 0 0 202.71 16.096 A 4.273 4.273 0 0 0 202.72 15.864 Z M 240.015 15.864 L 239.18 16.919 L 239.59 17.563 A 3.586 3.586 0 0 0 240.005 16.096 A 4.273 4.273 0 0 0 240.015 15.864 Z M 256.055 3.501 L 254.971 2.637 L 254.546 3.501 L 256.055 3.501 Z M 331.479 3.501 L 330.396 2.637 L 329.971 3.501 L 331.479 3.501 Z M 309.272 8.013 L 308.877 9.038 L 309.492 9.448 L 309.902 9.243 Q 309.785 8.54 309.272 8.013 Z M 68.364 16.304 L 67.72 16.084 L 67.5 17.153 L 68.145 17.373 L 68.364 16.304 Z M 85.459 16.304 L 84.814 16.084 L 84.595 17.153 L 85.239 17.373 L 85.459 16.304 Z M 141.167 3.032 L 140.332 2.402 L 140.112 3.457 L 140.332 3.677 L 141.167 3.032 Z M 187.236 3.032 L 186.401 2.402 L 186.182 3.457 L 186.401 3.677 L 187.236 3.032 Z M 228.721 4.146 L 228.076 3.94 L 227.871 4.995 L 228.296 4.775 L 228.501 4.995 L 228.721 4.146 Z M 55.532 3.223 L 55.122 2.593 L 54.287 2.798 A 1.912 1.912 0 0 0 54.595 3.207 Q 54.753 3.371 54.963 3.524 A 3.704 3.704 0 0 0 55.122 3.633 L 55.532 3.223 Z M 121.553 3.223 L 121.143 2.593 L 120.308 2.798 A 1.912 1.912 0 0 0 120.615 3.207 Q 120.774 3.371 120.984 3.524 A 3.704 3.704 0 0 0 121.143 3.633 L 121.553 3.223 Z M 279.478 3.223 L 279.067 2.593 L 278.232 2.798 A 1.912 1.912 0 0 0 278.54 3.207 Q 278.699 3.371 278.909 3.524 A 3.704 3.704 0 0 0 279.067 3.633 L 279.478 3.223 Z M 314.78 17.388 L 314.18 16.582 L 313.77 17.593 L 314.37 17.798 L 314.78 17.388 Z M 2.329 5.215 L 3.384 5.42 A 1.615 1.615 0 0 0 3.08 4.522 A 2.093 2.093 0 0 0 2.959 4.365 A 1.68 1.68 0 0 0 2.503 4.863 A 2.265 2.265 0 0 0 2.329 5.215 Z M 93.384 5.215 L 94.438 5.42 A 1.615 1.615 0 0 0 94.135 4.522 A 2.093 2.093 0 0 0 94.014 4.365 A 1.68 1.68 0 0 0 93.557 4.863 A 2.265 2.265 0 0 0 93.384 5.215 Z M 227.666 14.165 L 226.802 13.96 L 226.377 14.81 L 227.666 14.165 Z M 59.531 11.616 L 58.696 11.616 L 58.696 12.656 L 59.531 11.616 Z M 125.552 11.616 L 124.717 11.616 L 124.717 12.656 L 125.552 11.616 Z M 283.477 11.616 L 282.642 11.616 L 282.642 12.656 L 283.477 11.616 Z M 145.562 10.576 L 145.356 11.001 L 145.781 11.411 L 146.616 10.781 L 145.562 10.576 Z M 191.631 10.576 L 191.426 11.001 L 191.851 11.411 L 192.686 10.781 L 191.631 10.576 Z M 296.323 6.401 A 2.664 2.664 0 0 0 295.979 7.224 A 3.696 3.696 0 0 0 295.884 7.91 A 3.103 3.103 0 0 0 296.293 6.726 A 3.789 3.789 0 0 0 296.323 6.401 Z M 160.913 2.021 A 2.025 2.025 0 0 0 161.535 2.801 A 2.808 2.808 0 0 0 161.968 3.076 A 3.321 3.321 0 0 0 161.488 2.494 Q 161.244 2.256 160.933 2.036 A 5.476 5.476 0 0 0 160.913 2.021 Z M 206.982 2.021 A 2.025 2.025 0 0 0 207.604 2.801 A 2.808 2.808 0 0 0 208.037 3.076 A 3.321 3.321 0 0 0 207.557 2.494 Q 207.313 2.256 207.003 2.036 A 5.476 5.476 0 0 0 206.982 2.021 Z M 244.277 2.021 A 2.025 2.025 0 0 0 244.899 2.801 A 2.808 2.808 0 0 0 245.332 3.076 A 3.321 3.321 0 0 0 244.852 2.494 Q 244.608 2.256 244.297 2.036 A 5.476 5.476 0 0 0 244.277 2.021 Z M 160.063 17.139 L 158.994 16.699 L 159.214 17.563 L 160.063 17.139 Z M 206.133 17.139 L 205.063 16.699 L 205.283 17.563 L 206.133 17.139 Z M 243.428 17.139 L 242.358 16.699 L 242.578 17.563 L 243.428 17.139 Z M 32.109 9.214 L 31.465 10.503 Q 32.036 10.02 32.109 9.214 Z M 136.362 15.806 L 135.308 15.396 L 135.513 16.216 L 136.362 15.806 Z M 182.432 15.806 L 181.377 15.396 L 181.582 16.216 L 182.432 15.806 Z M 18.003 6.475 L 17.373 7.764 Q 17.886 7.222 18.003 6.475 Z M 109.058 6.475 L 108.428 7.764 Q 108.94 7.222 109.058 6.475 Z M 155.171 4.79 L 154.526 6.064 A 2.084 2.084 0 0 0 155.171 4.79 Z M 201.24 4.79 L 200.596 6.064 A 2.084 2.084 0 0 0 201.24 4.79 Z M 238.535 4.79 L 237.891 6.064 A 2.084 2.084 0 0 0 238.535 4.79 Z M 255.19 5.889 A 2.132 2.132 0 0 0 255.937 6.589 A 2.782 2.782 0 0 0 256.274 6.753 Q 255.967 6.167 255.19 5.889 Z M 330.615 5.889 A 2.132 2.132 0 0 0 331.362 6.589 A 2.782 2.782 0 0 0 331.699 6.753 Q 331.392 6.167 330.615 5.889 Z M 58.052 3.838 L 56.807 3.838 A 0.456 0.456 0 0 0 56.997 4.144 Q 57.068 4.197 57.164 4.237 A 1.13 1.13 0 0 0 57.231 4.263 L 58.052 3.838 Z M 124.072 3.838 L 122.827 3.838 A 0.456 0.456 0 0 0 123.018 4.144 Q 123.089 4.197 123.185 4.237 A 1.13 1.13 0 0 0 123.252 4.263 L 124.072 3.838 Z M 281.997 3.838 L 280.752 3.838 A 0.456 0.456 0 0 0 280.942 4.144 Q 281.013 4.197 281.11 4.237 A 1.13 1.13 0 0 0 281.177 4.263 L 281.997 3.838 Z M 218.057 12.891 L 217.002 12.891 L 217.852 13.535 L 218.057 12.891 Z M 139.922 18.105 L 140.757 17.49 A 0.494 0.494 0 0 0 140.586 17.212 Q 140.516 17.153 140.419 17.104 A 1.175 1.175 0 0 0 140.332 17.065 A 2.196 2.196 0 0 0 139.987 17.764 A 2.047 2.047 0 0 0 139.922 18.105 Z M 185.991 18.105 L 186.826 17.49 A 0.494 0.494 0 0 0 186.656 17.212 Q 186.585 17.153 186.488 17.104 A 1.175 1.175 0 0 0 186.401 17.065 A 2.196 2.196 0 0 0 186.057 17.764 A 2.047 2.047 0 0 0 185.991 18.105 Z M 29.106 9.419 A 3.567 3.567 0 0 0 29.647 9.93 A 4.731 4.731 0 0 0 30.176 10.283 A 2.301 2.301 0 0 0 29.55 9.666 A 3.07 3.07 0 0 0 29.106 9.419 Z M 53.657 4.688 L 52.603 3.838 Q 52.939 4.395 53.657 4.688 Z M 119.678 4.688 L 118.623 3.838 Q 118.96 4.395 119.678 4.688 Z M 277.603 4.688 L 276.548 3.838 Q 276.885 4.395 277.603 4.688 Z M 33.618 6.636 L 33.398 6.416 L 33.618 7.705 L 33.618 6.636 Z M 311.528 5.376 L 310.708 5.376 Q 310.796 5.83 311.118 6.182 L 311.528 5.376 Z M 221.045 6.064 L 220.195 6.064 L 220.195 6.694 L 220.4 6.694 L 221.045 6.064 Z M 34.688 4.482 A 1.712 1.712 0 0 0 35.099 5.335 A 2.305 2.305 0 0 0 35.332 5.566 Q 35.169 5.128 34.814 4.647 A 5.886 5.886 0 0 0 34.688 4.482 Z M 264.272 9.99 L 265.356 10.635 A 1.721 1.721 0 0 0 264.647 10.108 A 2.352 2.352 0 0 0 264.272 9.99 Z M 339.697 9.99 L 340.781 10.635 A 1.721 1.721 0 0 0 340.072 10.108 A 2.352 2.352 0 0 0 339.697 9.99 Z M 229.365 16.729 A 2.676 2.676 0 0 0 228.566 17.137 A 3.304 3.304 0 0 0 228.296 17.358 A 1.614 1.614 0 0 0 228.783 17.235 A 1.291 1.291 0 0 0 229.365 16.729 Z M 153.252 14.15 A 1.313 1.313 0 0 0 153.673 14.736 Q 153.854 14.885 154.102 15 Q 153.941 14.429 153.253 14.151 Z M 199.321 14.15 A 1.313 1.313 0 0 0 199.742 14.736 Q 199.924 14.885 200.171 15 Q 200.01 14.429 199.322 14.151 Z M 236.616 14.15 A 1.313 1.313 0 0 0 237.037 14.736 Q 237.219 14.885 237.466 15 Q 237.305 14.429 236.617 14.151 Z M 264.917 3.721 L 264.492 3.501 L 264.712 4.585 L 264.917 3.721 Z M 340.342 3.721 L 339.917 3.501 L 340.137 4.585 L 340.342 3.721 Z M 226.802 15.234 A 1.29 1.29 0 0 0 227.21 15.805 Q 227.375 15.942 227.597 16.051 A 2.556 2.556 0 0 0 227.666 16.084 A 2.693 2.693 0 0 0 227.343 15.692 Q 227.114 15.459 226.802 15.234 Z M 142.852 3.457 L 143.892 4.087 Q 143.511 3.604 142.852 3.457 Z M 188.921 3.457 L 189.961 4.087 Q 189.58 3.604 188.921 3.457 Z M 2.959 13.477 L 2.124 13.477 L 2.329 14.106 L 2.959 13.477 Z M 94.014 13.477 L 93.179 13.477 L 93.384 14.106 L 94.014 13.477 Z M 30.176 12.217 L 29.751 13.286 A 1.825 1.825 0 0 0 30.069 12.76 A 1.616 1.616 0 0 0 30.176 12.217 Z M 229.79 10.752 L 228.721 10.327 A 1.875 1.875 0 0 0 229.79 10.752 Z M 291.768 2.725 L 291.343 3.369 L 292.207 3.149 A 0.568 0.568 0 0 0 292.11 2.993 Q 292.004 2.87 291.811 2.751 A 2.162 2.162 0 0 0 291.768 2.725 Z M 4.233 3.516 L 4.014 3.516 L 3.604 4.146 L 4.233 4.146 L 4.233 3.516 Z M 95.288 3.516 L 95.068 3.516 L 94.658 4.146 L 95.288 4.146 L 95.288 3.516 Z M 254.971 8.701 A 2.19 2.19 0 0 0 255.412 9.362 A 2.724 2.724 0 0 0 255.63 9.565 A 1.172 1.172 0 0 0 255.126 8.798 A 1.683 1.683 0 0 0 254.971 8.701 Z M 330.396 8.701 A 2.19 2.19 0 0 0 330.837 9.362 A 2.724 2.724 0 0 0 331.055 9.565 A 1.172 1.172 0 0 0 330.551 8.798 A 1.683 1.683 0 0 0 330.396 8.701 Z M 49.248 16.655 L 48.838 17.271 L 49.673 17.065 Q 49.62 16.816 49.321 16.685 A 1.136 1.136 0 0 0 49.248 16.655 Z M 115.269 16.655 L 114.858 17.271 L 115.693 17.065 Q 115.641 16.816 115.342 16.685 A 1.136 1.136 0 0 0 115.269 16.655 Z M 273.193 16.655 L 272.783 17.271 L 273.618 17.065 Q 273.566 16.816 273.267 16.685 A 1.136 1.136 0 0 0 273.193 16.655 Z M 30.176 15.015 A 1.174 1.174 0 0 0 30.587 15.699 A 1.711 1.711 0 0 0 30.82 15.864 A 1.04 1.04 0 0 0 30.416 15.172 A 1.604 1.604 0 0 0 30.176 15.015 Z M 296.064 3.776 A 2.377 2.377 0 0 0 296.089 3.794 A 2.041 2.041 0 0 0 295.679 3.152 A 2.583 2.583 0 0 0 295.444 2.93 Q 295.559 3.416 296.064 3.776 Z M 219.126 15.879 L 218.276 15.234 A 1.278 1.278 0 0 0 218.595 15.633 A 1.206 1.206 0 0 0 219.126 15.879 Z M 161.763 16.494 L 161.133 17.344 A 1.04 1.04 0 0 0 161.535 17.048 Q 161.681 16.868 161.74 16.615 A 1.424 1.424 0 0 0 161.763 16.494 Z M 207.832 16.494 L 207.202 17.344 A 1.04 1.04 0 0 0 207.604 17.048 Q 207.751 16.868 207.81 16.615 A 1.424 1.424 0 0 0 207.832 16.494 Z M 245.127 16.494 L 244.497 17.344 A 1.04 1.04 0 0 0 244.899 17.048 Q 245.046 16.868 245.104 16.615 A 1.424 1.424 0 0 0 245.127 16.494 Z M 310.093 13.931 L 309.683 13.726 L 309.492 14.546 L 310.093 13.931 Z M 218.701 9.683 L 217.852 9.038 A 1.492 1.492 0 0 0 218.68 9.676 A 1.885 1.885 0 0 0 218.701 9.683 Z M 134.678 12.876 Q 134.78 13.345 135.308 13.711 A 1.094 1.094 0 0 0 134.893 13.021 A 1.618 1.618 0 0 0 134.678 12.876 Z M 180.747 12.876 Q 180.85 13.345 181.377 13.711 A 1.094 1.094 0 0 0 180.962 13.021 A 1.618 1.618 0 0 0 180.747 12.876 Z M 51.768 11.191 L 50.933 10.562 A 1.418 1.418 0 0 0 51.633 11.143 A 1.844 1.844 0 0 0 51.768 11.191 Z M 117.788 11.191 L 116.953 10.562 A 1.418 1.418 0 0 0 117.653 11.143 A 1.844 1.844 0 0 0 117.788 11.191 Z M 275.713 11.191 L 274.878 10.562 A 1.418 1.418 0 0 0 275.578 11.143 A 1.844 1.844 0 0 0 275.713 11.191 Z M 68.994 2.358 L 68.364 2.358 L 68.789 3.003 L 68.994 2.358 Z M 86.089 2.358 L 85.459 2.358 L 85.884 3.003 L 86.089 2.358 Z M 309.082 6.387 L 308.467 6.387 Q 308.555 6.782 308.877 7.002 L 309.082 6.387 Z M 296.528 12.891 L 296.089 13.33 L 296.968 13.11 L 296.528 12.891 Z M 68.364 13.506 L 67.5 13.081 A 0.982 0.982 0 0 0 68.213 13.497 A 1.332 1.332 0 0 0 68.364 13.506 Z M 85.459 13.506 L 84.595 13.081 A 0.982 0.982 0 0 0 85.307 13.497 A 1.332 1.332 0 0 0 85.459 13.506 Z M 60.161 8.877 L 59.941 8.877 L 59.736 9.521 L 60.161 9.521 L 60.161 8.877 Z M 126.182 8.877 L 125.962 8.877 L 125.757 9.521 L 126.182 9.521 L 126.182 8.877 Z M 284.106 8.877 L 283.887 8.877 L 283.682 9.521 L 284.106 9.521 L 284.106 8.877 Z M 153.882 12.026 Q 153.896 12.48 154.307 12.876 A 0.999 0.999 0 0 0 154.143 12.335 Q 154.043 12.176 153.882 12.026 Z M 199.951 12.026 Q 199.966 12.48 200.376 12.876 A 0.999 0.999 0 0 0 200.212 12.335 Q 200.112 12.176 199.951 12.026 Z M 237.246 12.026 Q 237.261 12.48 237.671 12.876 A 0.999 0.999 0 0 0 237.507 12.335 Q 237.407 12.176 237.246 12.026 Z M 256.699 13.447 L 255.835 13.022 A 1.414 1.414 0 0 0 256.268 13.335 A 1.309 1.309 0 0 0 256.699 13.447 Z M 332.124 13.447 L 331.26 13.022 A 1.414 1.414 0 0 0 331.693 13.335 A 1.309 1.309 0 0 0 332.124 13.447 Z M 228.076 8.408 L 228.501 9.272 A 1.544 1.544 0 0 0 228.076 8.408 Z M 296.528 15.483 L 295.884 16.143 A 0.982 0.982 0 0 0 296.186 16.018 Q 296.459 15.842 296.528 15.483 Z M 146.396 16.641 L 146.206 16.641 L 145.986 17.271 L 146.396 17.271 L 146.396 16.641 Z M 192.466 16.641 L 192.275 16.641 L 192.056 17.271 L 192.466 17.271 L 192.466 16.641 Z M 312.144 3.955 L 311.323 3.545 A 1.433 1.433 0 0 0 312.144 3.955 Z M 153.882 17.139 L 154.526 17.769 A 0.939 0.939 0 0 0 154.001 17.187 A 1.354 1.354 0 0 0 153.882 17.139 Z M 199.951 17.139 L 200.596 17.769 A 0.939 0.939 0 0 0 200.07 17.187 A 1.354 1.354 0 0 0 199.951 17.139 Z M 237.246 17.139 L 237.891 17.769 A 0.939 0.939 0 0 0 237.365 17.187 A 1.354 1.354 0 0 0 237.246 17.139 Z M 58.696 8.042 A 1.408 1.408 0 0 0 58.989 8.422 Q 59.125 8.548 59.302 8.657 A 2.402 2.402 0 0 0 59.326 8.672 A 1.041 1.041 0 0 0 58.768 8.073 A 1.415 1.415 0 0 0 58.696 8.042 Z M 124.717 8.042 A 1.408 1.408 0 0 0 125.01 8.422 Q 125.145 8.548 125.323 8.657 A 2.402 2.402 0 0 0 125.347 8.672 A 1.041 1.041 0 0 0 124.788 8.073 A 1.415 1.415 0 0 0 124.717 8.042 Z M 282.642 8.042 A 1.408 1.408 0 0 0 282.935 8.422 Q 283.07 8.548 283.248 8.657 A 2.402 2.402 0 0 0 283.271 8.672 A 1.041 1.041 0 0 0 282.713 8.073 A 1.415 1.415 0 0 0 282.642 8.042 Z M 295.884 13.975 L 295.664 14.399 L 296.089 14.619 L 296.089 13.975 L 295.884 13.975 Z M 138.647 17.695 L 138.032 17.065 Q 138.179 17.505 138.647 17.695 Z M 184.717 17.695 L 184.102 17.065 Q 184.248 17.505 184.717 17.695 Z M 309.272 11.279 L 309.082 11.279 L 308.877 11.895 L 309.272 11.689 L 309.272 11.279 Z M 155.376 9.463 L 154.951 9.243 L 155.171 9.888 L 155.376 9.463 Z M 201.445 9.463 L 201.021 9.243 L 201.24 9.888 L 201.445 9.463 Z M 238.74 9.463 L 238.315 9.243 L 238.535 9.888 L 238.74 9.463 Z M 154.102 8.613 L 153.677 8.408 L 153.882 9.038 L 154.102 8.613 Z M 200.171 8.613 L 199.746 8.408 L 199.951 9.038 L 200.171 8.613 Z M 237.466 8.613 L 237.041 8.408 L 237.246 9.038 L 237.466 8.613 Z M 154.746 7.969 L 154.102 7.764 Q 154.169 8.021 154.474 8.165 A 1.192 1.192 0 0 0 154.526 8.188 L 154.746 7.969 Z M 200.815 7.969 L 200.171 7.764 Q 200.239 8.021 200.544 8.165 A 1.192 1.192 0 0 0 200.596 8.188 L 200.815 7.969 Z M 238.11 7.969 L 237.466 7.764 Q 237.533 8.021 237.839 8.165 A 1.192 1.192 0 0 0 237.891 8.188 L 238.11 7.969 Z M 68.441 4.481 A 1.02 1.02 0 0 0 68.569 4.497 Q 68.416 4.229 68.041 4.106 A 1.659 1.659 0 0 0 67.925 4.072 Q 68.075 4.411 68.441 4.481 Z M 85.536 4.481 A 1.02 1.02 0 0 0 85.664 4.497 Q 85.511 4.229 85.136 4.106 A 1.659 1.659 0 0 0 85.02 4.072 Q 85.17 4.411 85.536 4.481 Z M 230.64 7.559 L 230.01 7.339 A 0.513 0.513 0 0 0 230.237 7.671 A 0.864 0.864 0 0 0 230.419 7.763 L 230.64 7.559 Z M 26.104 3.633 L 26.748 4.072 A 0.794 0.794 0 0 0 26.441 3.765 Q 26.325 3.697 26.175 3.652 A 1.634 1.634 0 0 0 26.104 3.633 Z M 295.884 6.182 L 295.444 5.537 A 1.028 1.028 0 0 0 295.591 5.901 A 0.947 0.947 0 0 0 295.884 6.182 Z M 35.332 3.838 L 35.127 4.277 L 35.552 4.277 L 35.552 3.838 L 35.332 3.838 Z M 298.037 5.098 L 297.393 4.673 Q 297.557 4.926 297.918 5.059 A 1.791 1.791 0 0 0 298.037 5.098 Z M 217.207 4.995 L 217.852 5.42 Q 217.659 5.145 217.26 5.012 A 1.833 1.833 0 0 0 217.207 4.995 Z M 53.247 13.286 A 0.814 0.814 0 0 0 53.581 13.863 A 1.142 1.142 0 0 0 53.657 13.916 A 0.97 0.97 0 0 0 53.52 13.556 A 0.913 0.913 0 0 0 53.247 13.286 Z M 119.268 13.286 A 0.814 0.814 0 0 0 119.601 13.863 A 1.142 1.142 0 0 0 119.678 13.916 A 0.97 0.97 0 0 0 119.54 13.556 A 0.913 0.913 0 0 0 119.268 13.286 Z M 277.192 13.286 A 0.814 0.814 0 0 0 277.526 13.863 A 1.142 1.142 0 0 0 277.603 13.916 A 0.97 0.97 0 0 0 277.465 13.556 A 0.913 0.913 0 0 0 277.192 13.286 Z M 68.789 3.208 L 68.569 3.208 L 68.789 3.853 L 68.789 3.208 Z M 85.884 3.208 L 85.664 3.208 L 85.884 3.853 L 85.884 3.208 Z M 133.843 8.892 L 133.623 8.892 L 133.843 9.536 L 133.843 8.892 Z M 179.912 8.892 L 179.692 8.892 L 179.912 9.536 L 179.912 8.892 Z M 265.781 4.585 L 265.576 5.01 L 266.001 5.01 L 266.001 4.585 L 265.781 4.585 Z M 341.206 4.585 L 341.001 5.01 L 341.426 5.01 L 341.426 4.585 L 341.206 4.585 Z M 227.021 11.191 L 226.597 11.821 A 0.879 0.879 0 0 0 226.906 11.487 Q 226.973 11.365 227.016 11.212 A 1.643 1.643 0 0 0 227.021 11.191 Z M 18.003 4.79 L 17.783 4.79 L 18.003 5.42 L 18.003 4.79 Z M 109.058 4.79 L 108.838 4.79 L 109.058 5.42 L 109.058 4.79 Z M 322.515 8.643 L 321.914 8.423 A 0.489 0.489 0 0 0 322.109 8.719 Q 322.181 8.773 322.278 8.815 A 1.106 1.106 0 0 0 322.324 8.833 L 322.515 8.643 Z M 255.63 14.092 L 255.19 13.887 L 255.19 14.326 L 255.63 14.092 Z M 331.055 14.092 L 330.615 13.887 L 330.615 14.326 L 331.055 14.092 Z M 155.581 14.795 A 0.524 0.524 0 0 0 155.728 15.033 Q 155.837 15.139 156.021 15.22 Q 155.982 14.963 155.674 14.83 A 1.16 1.16 0 0 0 155.581 14.795 Z M 201.65 14.795 A 0.524 0.524 0 0 0 201.797 15.033 Q 201.907 15.139 202.09 15.22 Q 202.051 14.963 201.743 14.83 A 1.16 1.16 0 0 0 201.65 14.795 Z M 238.945 14.795 A 0.524 0.524 0 0 0 239.092 15.033 Q 239.202 15.139 239.385 15.22 Q 239.346 14.963 239.038 14.83 A 1.16 1.16 0 0 0 238.945 14.795 Z M 294.906 3.744 A 1.202 1.202 0 0 0 295.02 3.794 Q 294.946 3.574 294.58 3.369 Q 294.629 3.603 294.906 3.744 Z M 258.156 2.189 A 1.192 1.192 0 0 0 258.208 2.212 A 0.456 0.456 0 0 0 258.017 1.906 Q 257.947 1.853 257.85 1.813 A 1.13 1.13 0 0 0 257.783 1.787 Q 257.851 2.044 258.156 2.189 Z M 333.581 2.189 A 1.192 1.192 0 0 0 333.633 2.212 A 0.456 0.456 0 0 0 333.442 1.906 Q 333.371 1.853 333.275 1.813 A 1.13 1.13 0 0 0 333.208 1.787 Q 333.276 2.044 333.581 2.189 Z M 137.607 4.497 A 0.594 0.594 0 0 0 137.706 4.656 Q 137.812 4.783 138.005 4.905 A 2.123 2.123 0 0 0 138.032 4.922 A 0.446 0.446 0 0 0 137.877 4.651 Q 137.812 4.594 137.719 4.547 A 1.168 1.168 0 0 0 137.607 4.497 Z M 183.677 4.497 A 0.594 0.594 0 0 0 183.775 4.656 Q 183.881 4.783 184.074 4.905 A 2.123 2.123 0 0 0 184.102 4.922 A 0.446 0.446 0 0 0 183.946 4.651 Q 183.881 4.594 183.789 4.547 A 1.168 1.168 0 0 0 183.677 4.497 Z M 60.272 11.353 A 1.198 1.198 0 0 0 60.366 11.396 Q 60.322 11.118 59.941 10.986 Q 60.004 11.213 60.272 11.353 Z M 126.293 11.353 A 1.198 1.198 0 0 0 126.387 11.396 Q 126.343 11.118 125.962 10.986 Q 126.025 11.213 126.293 11.353 Z M 137.513 17.227 A 1.198 1.198 0 0 0 137.607 17.271 Q 137.563 16.992 137.183 16.86 Q 137.245 17.087 137.513 17.227 Z M 183.583 17.227 A 1.198 1.198 0 0 0 183.677 17.271 Q 183.633 16.992 183.252 16.86 Q 183.315 17.087 183.583 17.227 Z M 284.218 11.353 A 1.198 1.198 0 0 0 284.312 11.396 Q 284.268 11.118 283.887 10.986 Q 283.95 11.213 284.218 11.353 Z M 61.142 16.816 A 1.136 1.136 0 0 0 61.216 16.846 A 0.466 0.466 0 0 0 61.068 16.599 Q 60.963 16.504 60.791 16.436 Q 60.843 16.685 61.142 16.816 Z M 127.163 16.816 A 1.136 1.136 0 0 0 127.236 16.846 A 0.466 0.466 0 0 0 127.088 16.599 Q 126.984 16.504 126.812 16.436 Q 126.864 16.685 127.163 16.816 Z M 285.088 16.816 A 1.136 1.136 0 0 0 285.161 16.846 A 0.466 0.466 0 0 0 285.013 16.599 Q 284.909 16.504 284.736 16.436 Q 284.789 16.685 285.088 16.816 Z M 311.924 4.966 A 0.442 0.442 0 0 0 312.099 5.252 Q 312.166 5.304 312.258 5.346 A 1.103 1.103 0 0 0 312.334 5.376 A 0.442 0.442 0 0 0 312.159 5.09 Q 312.092 5.037 312 4.996 A 1.103 1.103 0 0 0 311.924 4.966 Z M 4.453 2.886 L 4.878 3.311 Q 4.805 3.091 4.453 2.886 Z M 95.508 2.886 L 95.933 3.311 Q 95.859 3.091 95.508 2.886 Z M 61.562 15.341 A 2.085 2.085 0 0 0 61.626 15.381 A 0.442 0.442 0 0 0 61.451 15.095 Q 61.384 15.042 61.292 15.001 A 1.103 1.103 0 0 0 61.216 14.971 Q 61.282 15.156 61.562 15.341 Z M 127.583 15.341 A 2.085 2.085 0 0 0 127.646 15.381 A 0.442 0.442 0 0 0 127.471 15.095 Q 127.404 15.042 127.312 15.001 A 1.103 1.103 0 0 0 127.236 14.971 Q 127.302 15.156 127.583 15.341 Z M 285.508 15.341 A 2.085 2.085 0 0 0 285.571 15.381 A 0.442 0.442 0 0 0 285.396 15.095 Q 285.329 15.042 285.237 15.001 A 1.103 1.103 0 0 0 285.161 14.971 Q 285.227 15.156 285.508 15.341 Z M 320.288 13.11 A 0.442 0.442 0 0 0 320.463 13.397 Q 320.53 13.449 320.622 13.49 A 1.103 1.103 0 0 0 320.698 13.521 Q 320.632 13.336 320.352 13.151 A 2.085 2.085 0 0 0 320.288 13.11 Z M 321.108 9.038 A 0.496 0.496 0 0 0 321.273 9.307 Q 321.364 9.388 321.504 9.448 A 0.453 0.453 0 0 0 321.321 9.152 Q 321.252 9.099 321.158 9.058 A 1.074 1.074 0 0 0 321.108 9.038 Z M 25.884 2.988 L 26.104 3.428 L 26.104 2.988 L 25.884 2.988 Z M 68.364 12.217 L 68.569 12.656 L 68.569 12.217 L 68.364 12.217 Z M 85.459 12.217 L 85.664 12.656 L 85.664 12.217 L 85.459 12.217 Z M 255.19 14.751 L 255.396 15.19 L 255.396 14.751 L 255.19 14.751 Z M 330.615 14.751 L 330.82 15.19 L 330.82 14.751 L 330.615 14.751 Z M 154.526 12.876 L 154.746 13.301 L 154.746 12.876 L 154.526 12.876 Z M 200.596 12.876 L 200.815 13.301 L 200.815 12.876 L 200.596 12.876 Z M 219.126 5.215 L 219.346 5.64 L 219.346 5.215 L 219.126 5.215 Z M 237.891 12.876 L 238.11 13.301 L 238.11 12.876 L 237.891 12.876 Z M 3.179 2.886 L 3.384 3.311 L 3.384 2.886 L 3.179 2.886 Z M 3.604 5.64 L 3.809 6.064 L 3.809 5.64 L 3.604 5.64 Z M 29.326 7.5 L 29.531 7.925 L 29.531 7.5 L 29.326 7.5 Z M 94.233 2.886 L 94.438 3.311 L 94.438 2.886 L 94.233 2.886 Z M 94.658 5.64 L 94.863 6.064 L 94.863 5.64 L 94.658 5.64 Z M 143.687 16.216 L 143.892 16.641 L 143.892 16.216 L 143.687 16.216 Z M 189.756 16.216 L 189.961 16.641 L 189.961 16.216 L 189.756 16.216 Z M 218.701 11.616 L 218.921 12.026 L 218.921 11.616 L 218.701 11.616 Z M 134.897 9.741 L 135.103 10.151 L 135.103 9.741 L 134.897 9.741 Z M 180.967 9.741 L 181.172 10.151 L 181.172 9.741 L 180.967 9.741 Z M 310.708 12.51 L 310.913 12.92 L 310.913 12.51 L 310.708 12.51 Z" vector-effect="non-scaling-stroke"/></g></svg>